<svg width="100" height="38" viewBox="0 0 100 38" xmlns="http://www.w3.org/2000/svg" xmlns:xlink="http://www.w3.org/1999/xlink">
      <defs>
        <path id="a" d="M0 88.106h234.357V0H0z"></path>
      </defs>
      <g fill="none" fill-rule="evenodd">
        <g>
          <path d="M62.854 17.39c1.81-1.228 2.691-2.898 2.691-5.087v-.07c0-1.735-.57-3.15-1.746-4.327-1.454-1.455-3.702-2.225-6.5-2.225H45.848v24.642H57.57c5.912 0 9.304-2.526 9.304-6.929v-.067c0-2.833-1.246-4.687-4.02-5.937Zm-5.284 7.574h-5.862V20.46H57.4c2.328 0 3.51.746 3.51 2.218v.07c0 1.471-1.123 2.217-3.34 2.217Zm-5.862-9.624v-4.3h4.807c1.399 0 3.067.36 3.067 2.08v.069c0 1.427-1.148 2.151-3.41 2.151h-4.464Zm34.876-9.66h-9.68l.006 24.644 9.674-.002c3.682 0 7.023-1.263 9.41-3.555 2.349-2.259 3.64-5.372 3.64-8.766v-.068c0-7.1-5.488-12.253-13.05-12.253M93.4 18.001v.068c0 4.043-2.74 6.759-6.816 6.759h-3.682V11.176h3.682c4.076 0 6.816 2.742 6.816 6.825" fill="#4D4C4E" fill-rule="nonzero"></path>
          <path d="M71.527 5.641a3.002 3.002 0 0 1 3 3.003v21.684H68.53V5.64l2.998.001Z" fill="#4D4C4E"></path>
          <path d="M20.814 21.732c-3.173 5.144 7.018 5.221 2.303 14.833-.138.023-.275.05-.417.07C11.711 38.246 1.498 30.63-.11 19.625A20.102 20.102 0 0 1 3.197 5.328c-.513 11.614 20.58 11.601 17.617 16.403M25.31 36.07c1.086-2.023 3.45-4.973 8.505-10.92 7.559-8.896-14.84-5.909-18.68-12.641-3.16-5.547 8.605-9.533 15.713-12.62a20.08 20.08 0 0 1 8.839 13.902c1.478 10.11-4.821 19.558-14.377 22.28m-6.636-25.402c-.754.397.596 2.151 4.048 2.245 3.454.096-.998-3.849-4.048-2.245m7.62 1.877c-2.588-.84-.885 1.235.346 1.372 1.231.136 1.487-.777-.346-1.372m2.7 2.03c-.86-.036-1.014.485.279.759 1.825.386.583-.722-.278-.759" fill="#195974" fill-rule="nonzero"></path>
        </g>
      </g>
    </svg>
